<svg width="436" height="314" viewBox="0 0 436 314" fill="none" xmlns="http://www.w3.org/2000/svg">
<path d="M212.443 25.777C200.699 12.4333 171.413 -5.81131 102.633 7.03397C81.2288 11.0313 57.69 23.9516 41.7519 34.0325C28.4466 42.4482 20.1185 56.4014 17.326 71.7278L3.73345 146.329C1.2437 159.993 1.915 174.047 5.69594 187.412L9.68634 201.518C17.4232 228.866 36.1173 251.803 61.3434 264.897L145.634 308.651C151.185 311.533 157.589 312.317 163.671 310.86L202.492 301.558L239.49 310.708C245.742 312.254 252.284 312.186 258.502 310.511L361.654 282.711C380.365 277.668 395.406 263.759 401.895 245.5L428.572 170.434C432.828 158.458 434.376 145.688 433.106 133.042L429.573 97.8707C425.851 60.803 398.94 30.2197 362.647 21.8104L305.467 8.56141C300.842 7.48955 296.006 7.75731 291.527 9.33337L228.5 31.5096C223.188 33.3784 216.626 30.5294 212.443 25.777Z" fill="url(#paint0_radial_101_4)" stroke="#571CFF" stroke-width="4"/>
<defs>
<radialGradient id="paint0_radial_101_4" cx="0" cy="0" r="1" gradientUnits="userSpaceOnUse" gradientTransform="translate(221.75 157.829) rotate(90) scale(153.171 219.75)">
<stop stop-color="#BE34FF"/>
<stop offset="1" stop-color="#571CFF"/>
</radialGradient>
</defs>
</svg>
