<svg xmlns="http://www.w3.org/2000/svg" xmlns:xlink="http://www.w3.org/1999/xlink" width="31.915" height="31.915" viewBox="0 0 31.915 31.915">
  <defs>
    <rect id="rect-1" width="31.915" height="31.915" x="0" y="0"/>
    <mask id="mask-2" maskContentUnits="userSpaceOnUse" maskUnits="userSpaceOnUse">
      <rect width="31.915" height="31.915" x="0" y="0" fill="black"/>
      <use fill="white" xlink:href="#rect-1"/>
    </mask>
  </defs>
  <g>
    <use fill="none" xlink:href="#rect-1"/>
    <g mask="url(#mask-2)">
      <path fill="rgb(255,255,255)" fill-rule="evenodd" d="M20.51092919 27.69340093l11.17021276-11.17021277c.31166889-.31166888.31166889-.81669714 0-1.12836602L20.5109292 4.22460937c-.31166888-.31166888-.81669714-.31166888-1.12836603 0-.31166888.31166889-.31166888.84063332 0 1.1523022l9.80834442 9.83252992H.79787234C.35717254 15.20944149 0 15.51687168 0 15.9574468s.35717254.74800532.79787234.74800532h28.39303524l-9.80834442 9.83390126c-.15583444.15583444-.23375166.37300532-.23375166.5770861 0 .20408079.07791722.41464429.23375166.57047873.31179356.31166888.81669715.3181516 1.12836603.00648271z"/>
    </g>
  </g>
</svg>
