<svg width="231" height="274" viewBox="0 0 231 274" fill="none" xmlns="http://www.w3.org/2000/svg">
<path d="M148 191L138.005 190.693L148 191ZM89.8423 247.193C84.7022 249.213 82.1729 255.018 84.1931 260.158C86.2132 265.298 92.0178 267.827 97.1579 265.807L89.8423 247.193ZM122.262 20.6111C127.57 19.0858 130.636 13.5463 129.111 8.23821C127.586 2.93016 122.046 -0.136357 116.738 1.38894L122.262 20.6111ZM138.005 190.693C137.449 208.79 126.397 222.716 113.977 232.683C107.865 237.589 101.744 241.261 97.1354 243.707C94.8422 244.924 92.9529 245.822 91.6657 246.404C91.0228 246.694 90.5325 246.905 90.2197 247.037C90.0634 247.103 89.9517 247.149 89.8877 247.175C89.8557 247.188 89.8356 247.196 89.8279 247.199C89.8241 247.2 89.8233 247.2 89.8257 247.2C89.8269 247.199 89.8289 247.198 89.8316 247.197C89.833 247.197 89.8357 247.196 89.8364 247.195C89.8393 247.194 89.8423 247.193 93.5001 256.5C97.1579 265.807 97.1614 265.806 97.165 265.804C97.1665 265.804 97.1704 265.802 97.1734 265.801C97.1794 265.799 97.1862 265.796 97.1938 265.793C97.2091 265.787 97.2276 265.779 97.2493 265.771C97.2927 265.753 97.3489 265.731 97.4174 265.703C97.5546 265.647 97.7413 265.57 97.9745 265.472C98.4407 265.276 99.0932 264.995 99.9058 264.627C101.53 263.893 103.802 262.811 106.511 261.373C111.907 258.51 119.154 254.173 126.496 248.281C140.984 236.653 157.181 217.829 157.995 191.307L138.005 190.693ZM119.5 11C116.738 1.38894 116.735 1.38999 116.731 1.39109C116.729 1.39152 116.725 1.39268 116.722 1.39354C116.716 1.39528 116.71 1.39721 116.702 1.39935C116.688 1.40362 116.67 1.40869 116.65 1.41456C116.61 1.42631 116.56 1.44129 116.499 1.45954C116.377 1.49604 116.215 1.54564 116.014 1.60869C115.613 1.73473 115.058 1.91484 114.371 2.15174C112.999 2.62486 111.089 3.32835 108.819 4.28497C104.309 6.1858 98.2258 9.1494 92.0727 13.3929C79.9391 21.7609 66 36.2768 66 58.5H86C86 45.7232 93.811 36.4891 103.427 29.8571C108.149 26.6006 112.941 24.2517 116.587 22.715C118.395 21.9529 119.884 21.4064 120.891 21.0592C121.393 20.8859 121.773 20.7633 122.009 20.6892C122.127 20.6521 122.209 20.6273 122.252 20.6143C122.273 20.6078 122.285 20.6044 122.287 20.6038C122.288 20.6036 122.286 20.604 122.282 20.6052C122.28 20.6058 122.277 20.6066 122.274 20.6076C122.272 20.6081 122.269 20.609 122.268 20.6092C122.265 20.6101 122.262 20.6111 119.5 11ZM66 58.5C66 70.7296 72.4203 81.5105 79.6367 90.8045C86.8035 100.035 96.7057 110.096 105.295 119.735C123.302 139.945 138.892 161.763 138.005 190.693L157.995 191.307C159.136 154.124 138.727 127.192 120.227 106.43C110.562 95.5835 102.084 87.1034 95.4338 78.5387C88.8333 70.0379 86 63.7704 86 58.5H66Z" fill="#262626"/>
<g style="mix-blend-mode:screen">
<path d="M184 198L174.005 197.693L184 198ZM125.842 254.193C120.702 256.213 118.173 262.018 120.193 267.158C122.213 272.298 128.018 274.827 133.158 272.807L125.842 254.193ZM158.262 27.6111C163.57 26.0858 166.636 20.5463 165.111 15.2382C163.586 9.93016 158.046 6.86364 152.738 8.38894L158.262 27.6111ZM174.005 197.693C173.449 215.79 162.397 229.716 149.977 239.683C143.865 244.589 137.744 248.261 133.135 250.707C130.842 251.924 128.953 252.822 127.666 253.404C127.023 253.694 126.533 253.905 126.22 254.037C126.063 254.103 125.952 254.149 125.888 254.175C125.856 254.188 125.836 254.196 125.828 254.199C125.824 254.2 125.823 254.2 125.826 254.2C125.827 254.199 125.829 254.198 125.832 254.197C125.833 254.197 125.836 254.196 125.836 254.195C125.839 254.194 125.842 254.193 129.5 263.5C133.158 272.807 133.161 272.806 133.165 272.804C133.167 272.804 133.17 272.802 133.173 272.801C133.179 272.799 133.186 272.796 133.194 272.793C133.209 272.787 133.228 272.779 133.249 272.771C133.293 272.753 133.349 272.731 133.417 272.703C133.555 272.647 133.741 272.57 133.974 272.472C134.441 272.276 135.093 271.995 135.906 271.627C137.53 270.893 139.802 269.811 142.511 268.373C147.907 265.51 155.154 261.173 162.496 255.281C176.984 243.653 193.181 224.829 193.995 198.307L174.005 197.693ZM155.5 18C152.738 8.38894 152.735 8.38999 152.731 8.39109C152.729 8.39152 152.725 8.39268 152.722 8.39354C152.716 8.39528 152.71 8.39721 152.702 8.39935C152.688 8.40362 152.67 8.40869 152.65 8.41456C152.61 8.42631 152.56 8.44129 152.499 8.45954C152.377 8.49604 152.215 8.54564 152.014 8.60869C151.613 8.73473 151.058 8.91484 150.371 9.15174C148.999 9.62486 147.089 10.3283 144.819 11.285C140.309 13.1858 134.226 16.1494 128.073 20.3929C115.939 28.7609 102 43.2768 102 65.5H122C122 52.7232 129.811 43.4891 139.427 36.8571C144.149 33.6006 148.941 31.2517 152.587 29.715C154.395 28.9529 155.884 28.4064 156.891 28.0592C157.393 27.8859 157.773 27.7633 158.009 27.6892C158.127 27.6521 158.209 27.6273 158.252 27.6143C158.273 27.6078 158.285 27.6044 158.287 27.6038C158.288 27.6036 158.286 27.604 158.282 27.6052C158.28 27.6058 158.277 27.6066 158.274 27.6076C158.272 27.6081 158.269 27.609 158.268 27.6092C158.265 27.6101 158.262 27.6111 155.5 18ZM102 65.5C102 77.7296 108.42 88.5105 115.637 97.8045C122.804 107.035 132.706 117.096 141.295 126.735C159.302 146.945 174.892 168.763 174.005 197.693L193.995 198.307C195.136 161.124 174.727 134.192 156.227 113.43C146.562 102.583 138.084 94.1034 131.434 85.5387C124.833 77.0379 122 70.7704 122 65.5H102Z" fill="#474747"/>
</g>
<g style="mix-blend-mode:screen">
<path d="M118 198L108.005 197.693L118 198ZM59.8423 254.193C54.7022 256.213 52.1729 262.018 54.1931 267.158C56.2132 272.298 62.0178 274.827 67.1579 272.807L59.8423 254.193ZM92.2619 27.6111C97.5699 26.0858 100.636 20.5463 99.1112 15.2382C97.5859 9.93016 92.0464 6.86364 86.7383 8.38894L92.2619 27.6111ZM108.005 197.693C107.449 215.79 96.3965 229.716 83.9775 239.683C77.8652 244.589 71.7442 248.261 67.1354 250.707C64.8422 251.924 62.9529 252.822 61.6657 253.404C61.0228 253.694 60.5325 253.905 60.2197 254.037C60.0634 254.103 59.9517 254.149 59.8877 254.175C59.8557 254.188 59.8356 254.196 59.8279 254.199C59.8241 254.2 59.8233 254.2 59.8257 254.2C59.8269 254.199 59.8289 254.198 59.8316 254.197C59.833 254.197 59.8357 254.196 59.8364 254.195C59.8393 254.194 59.8423 254.193 63.5001 263.5C67.1579 272.807 67.1614 272.806 67.165 272.804C67.1665 272.804 67.1704 272.802 67.1734 272.801C67.1794 272.799 67.1862 272.796 67.1938 272.793C67.2091 272.787 67.2276 272.779 67.2493 272.771C67.2927 272.753 67.3489 272.731 67.4174 272.703C67.5546 272.647 67.7413 272.57 67.9745 272.472C68.4407 272.276 69.0932 271.995 69.9058 271.627C71.5295 270.893 73.8017 269.811 76.5109 268.373C81.9069 265.51 89.1542 261.173 96.4958 255.281C110.984 243.653 127.181 224.829 127.995 198.307L108.005 197.693ZM89.5001 18C86.7383 8.38894 86.7347 8.38999 86.7308 8.39109C86.7293 8.39152 86.7253 8.39268 86.7223 8.39354C86.7163 8.39528 86.7096 8.39721 86.7023 8.39935C86.6876 8.40362 86.6702 8.40869 86.6502 8.41456C86.6102 8.42631 86.5597 8.44129 86.4989 8.45954C86.3774 8.49604 86.215 8.54564 86.0143 8.60869C85.6131 8.73473 85.0581 8.91484 84.3711 9.15174C82.999 9.62486 81.0893 10.3283 78.8195 11.285C74.3094 13.1858 68.2258 16.1494 62.0727 20.3929C49.9391 28.7609 36 43.2768 36 65.5H56C56 52.7232 63.811 43.4891 73.4274 36.8571C78.1494 33.6006 82.9408 31.2517 86.5869 29.715C88.3953 28.9529 89.884 28.4064 90.8909 28.0592C91.3933 27.8859 91.7729 27.7633 92.0089 27.6892C92.1268 27.6521 92.2086 27.6273 92.2517 27.6143C92.2733 27.6078 92.2851 27.6044 92.2869 27.6038C92.2878 27.6036 92.2862 27.604 92.2821 27.6052C92.28 27.6058 92.2773 27.6066 92.2739 27.6076C92.2722 27.6081 92.2692 27.609 92.2684 27.6092C92.2652 27.6101 92.2619 27.6111 89.5001 18ZM36 65.5C36 77.7296 42.4203 88.5105 49.6367 97.8045C56.8035 107.035 66.7057 117.096 75.2946 126.735C93.3021 146.945 108.892 168.763 108.005 197.693L127.995 198.307C129.136 161.124 108.727 134.192 90.2269 113.43C80.5623 102.583 72.0841 94.1034 65.4338 85.5387C58.8333 77.0379 56 70.7704 56 65.5H36Z" fill="#474747"/>
</g>
<g style="mix-blend-mode:screen">
<path d="M82 198L72.0047 197.693L82 198ZM23.8423 254.193C18.7022 256.213 16.1729 262.018 18.1931 267.158C20.2132 272.298 26.0178 274.827 31.1579 272.807L23.8423 254.193ZM56.2619 27.6111C61.5699 26.0858 64.6365 20.5463 63.1112 15.2382C61.5859 9.93016 56.0464 6.86364 50.7383 8.38894L56.2619 27.6111ZM72.0047 197.693C71.4494 215.79 60.3965 229.716 47.9775 239.683C41.8652 244.589 35.7442 248.261 31.1354 250.707C28.8422 251.924 26.9529 252.822 25.6657 253.404C25.0228 253.694 24.5325 253.905 24.2197 254.037C24.0634 254.103 23.9517 254.149 23.8877 254.175C23.8557 254.188 23.8356 254.196 23.8279 254.199C23.8241 254.2 23.8233 254.2 23.8257 254.2C23.8269 254.199 23.8289 254.198 23.8316 254.197C23.833 254.197 23.8357 254.196 23.8364 254.195C23.8393 254.194 23.8423 254.193 27.5001 263.5C31.1579 272.807 31.1614 272.806 31.165 272.804C31.1665 272.804 31.1704 272.802 31.1734 272.801C31.1794 272.799 31.1862 272.796 31.1938 272.793C31.2091 272.787 31.2276 272.779 31.2493 272.771C31.2927 272.753 31.3489 272.731 31.4174 272.703C31.5546 272.647 31.7413 272.57 31.9745 272.472C32.4407 272.276 33.0932 271.995 33.9058 271.627C35.5295 270.893 37.8017 269.811 40.5109 268.373C45.9069 265.51 53.1542 261.173 60.4958 255.281C74.9844 243.653 91.1815 224.829 91.9953 198.307L72.0047 197.693ZM53.5001 18C50.7383 8.38894 50.7347 8.38999 50.7308 8.39109C50.7293 8.39152 50.7253 8.39268 50.7223 8.39354C50.7163 8.39528 50.7096 8.39721 50.7023 8.39935C50.6876 8.40362 50.6702 8.40869 50.6502 8.41456C50.6102 8.42631 50.5597 8.44129 50.4989 8.45954C50.3774 8.49604 50.215 8.54564 50.0143 8.60869C49.6131 8.73473 49.0581 8.91484 48.3711 9.15174C46.999 9.62486 45.0893 10.3283 42.8195 11.285C38.3094 13.1858 32.2258 16.1494 26.0727 20.3929C13.9391 28.7609 0 43.2768 0 65.5H20C20 52.7232 27.811 43.4891 37.4274 36.8571C42.1494 33.6006 46.9408 31.2517 50.5869 29.715C52.3953 28.9529 53.884 28.4064 54.8909 28.0592C55.3933 27.8859 55.7729 27.7633 56.0089 27.6892C56.1268 27.6521 56.2086 27.6273 56.2517 27.6143C56.2733 27.6078 56.2851 27.6044 56.2869 27.6038C56.2878 27.6036 56.2862 27.604 56.2821 27.6052C56.28 27.6058 56.2773 27.6066 56.2739 27.6076C56.2722 27.6081 56.2692 27.609 56.2684 27.6092C56.2652 27.6101 56.2619 27.6111 53.5001 18ZM0 65.5C0 77.7296 6.42029 88.5105 13.6367 97.8045C20.8035 107.035 30.7057 117.096 39.2946 126.735C57.3021 146.945 72.8924 168.763 72.0047 197.693L91.9953 198.307C93.1363 161.124 72.7266 134.192 54.2269 113.43C44.5623 102.583 36.0841 94.1034 29.4338 85.5387C22.8333 77.0379 20 70.7704 20 65.5H0Z" fill="#262626"/>
</g>
<g style="mix-blend-mode:screen">
<path d="M220 198L210.005 197.693L220 198ZM161.842 254.193C156.702 256.213 154.173 262.018 156.193 267.158C158.213 272.298 164.018 274.827 169.158 272.807L161.842 254.193ZM194.262 27.6111C199.57 26.0858 202.636 20.5463 201.111 15.2382C199.586 9.93016 194.046 6.86364 188.738 8.38894L194.262 27.6111ZM210.005 197.693C209.449 215.79 198.397 229.716 185.977 239.683C179.865 244.589 173.744 248.261 169.135 250.707C166.842 251.924 164.953 252.822 163.666 253.404C163.023 253.694 162.533 253.905 162.22 254.037C162.063 254.103 161.952 254.149 161.888 254.175C161.856 254.188 161.836 254.196 161.828 254.199C161.824 254.2 161.823 254.2 161.826 254.2C161.827 254.199 161.829 254.198 161.832 254.197C161.833 254.197 161.836 254.196 161.836 254.195C161.839 254.194 161.842 254.193 165.5 263.5C169.158 272.807 169.161 272.806 169.165 272.804C169.167 272.804 169.17 272.802 169.173 272.801C169.179 272.799 169.186 272.796 169.194 272.793C169.209 272.787 169.228 272.779 169.249 272.771C169.293 272.753 169.349 272.731 169.417 272.703C169.555 272.647 169.741 272.57 169.974 272.472C170.441 272.276 171.093 271.995 171.906 271.627C173.53 270.893 175.802 269.811 178.511 268.373C183.907 265.51 191.154 261.173 198.496 255.281C212.984 243.653 229.181 224.829 229.995 198.307L210.005 197.693ZM191.5 18C188.738 8.38894 188.735 8.38999 188.731 8.39109C188.729 8.39152 188.725 8.39268 188.722 8.39354C188.716 8.39528 188.71 8.39721 188.702 8.39935C188.688 8.40362 188.67 8.40869 188.65 8.41456C188.61 8.42631 188.56 8.44129 188.499 8.45954C188.377 8.49604 188.215 8.54564 188.014 8.60869C187.613 8.73473 187.058 8.91484 186.371 9.15174C184.999 9.62486 183.089 10.3283 180.819 11.285C176.309 13.1858 170.226 16.1494 164.073 20.3929C151.939 28.7609 138 43.2768 138 65.5H158C158 52.7232 165.811 43.4891 175.427 36.8571C180.149 33.6006 184.941 31.2517 188.587 29.715C190.395 28.9529 191.884 28.4064 192.891 28.0592C193.393 27.8859 193.773 27.7633 194.009 27.6892C194.127 27.6521 194.209 27.6273 194.252 27.6143C194.273 27.6078 194.285 27.6044 194.287 27.6038C194.288 27.6036 194.286 27.604 194.282 27.6052C194.28 27.6058 194.277 27.6066 194.274 27.6076C194.272 27.6081 194.269 27.609 194.268 27.6092C194.265 27.6101 194.262 27.6111 191.5 18ZM138 65.5C138 77.7296 144.42 88.5105 151.637 97.8045C158.804 107.035 168.706 117.096 177.295 126.735C195.302 146.945 210.892 168.763 210.005 197.693L229.995 198.307C231.136 161.124 210.727 134.192 192.227 113.43C182.562 102.583 174.084 94.1034 167.434 85.5387C160.833 77.0379 158 70.7704 158 65.5H138Z" fill="#262626"/>
</g>
</svg>
