<svg xmlns="http://www.w3.org/2000/svg" xmlns:xlink="http://www.w3.org/1999/xlink" width="32" height="32" viewBox="0 0 32 32">
  <defs>
    <rect id="rect-1" width="32" height="32" x="0" y="0"/>
    <mask id="mask-2" maskContentUnits="userSpaceOnUse" maskUnits="userSpaceOnUse">
      <rect width="32" height="32" x="0" y="0" fill="black"/>
      <use fill="white" xlink:href="#rect-1"/>
    </mask>
  </defs>
  <g>
    <use fill="none" xlink:href="#rect-1"/>
    <g mask="url(#mask-2)">
      <path fill="rgb(77,255,159)" fill-rule="evenodd" d="M10 26h12c5.51416016 0 10-4.48583984 10-10S27.51416016 6 22 6H10C4.48583984 6 0 10.48583984 0 16s4.48583984 10 10 10zM2 16c0-4.41113281 3.58886719-8 8-8h12c4.41113281 0 8 3.58886719 8 8s-3.58886719 8-8 8H10c-4.41113281 0-8-3.58886719-8-8z"/>
      <ellipse cx="10" cy="16" fill="rgb(18,251,195)" rx="5" ry="5"/>
    </g>
  </g>
</svg>
