<svg xmlns="http://www.w3.org/2000/svg" width="40.409" height="40.909" viewBox="0 0 40.409 40.909">
  <g>
    <path fill="rgb(255,255,255)" fill-rule="evenodd" d="M21.50000008 8e-8c10.21042796 0 18.5 8.28957205 18.5 18.5 0 10.21042796-8.28957204 18.5-18.5 18.5-10.21042795 0-18.5-8.28957204-18.5-18.5 0-10.21042795 8.28957205-18.5 18.5-18.5z"/>
    <path fill="rgb(0,0,0)" fill-rule="evenodd" d="M26.6048964 6.8059047c-.34168716-.34168734-.89574952-.3416875-1.23743687-3.4e-7l-.3093593.30935913 1.23743652 1.23743722-5.56846749 5.56846436c-.6833747.68337432-1.79149942.68337401-2.47487374-7e-7l-.9280774-.9280779c-.68337432-.68337471-1.79149904-.68337502-2.47487374-7e-7l-1.23743722 1.23743652 5.56846436 5.5684675-8.04334193 8.0433374-1.2374374 1.85615496 1.85615566-1.23743635 8.04334193-8.0433374 5.56846436 5.56846748 1.23743722-1.23743652c.6833747-.68337432.68337502-1.79149904 7e-7-2.47487375l-.9280774-.92807791c-.68337432-.6833747-.683374-1.79149943 7e-7-2.47487375l5.56846749-5.56846436 1.23743652 1.23743722.3093593-.30935913c.34168736-.34168716.34168752-.89574952 3.6e-7-1.23743687L26.6048964 6.8059047z"/>
  </g>
</svg>
