<svg xmlns="http://www.w3.org/2000/svg" xmlns:xlink="http://www.w3.org/1999/xlink" width="24" height="24" viewBox="0 0 24 24">
  <defs>
    <rect id="rect-1" width="24" height="24" x="0" y="0"/>
    <mask id="mask-2" maskContentUnits="userSpaceOnUse" maskUnits="userSpaceOnUse">
      <rect width="24" height="24" x="0" y="0" fill="black"/>
      <use fill="white" xlink:href="#rect-1"/>
    </mask>
    <path id="path-5" fill-rule="evenodd" d="M16 11h1c2.75957512 0 5 2.24042488 5 5v1c0 2.75957512-2.24042488 5-5 5h-1c-2.75957512 0-5-2.24042488-5-5v-1c0-2.75957512 2.24042488-5 5-5z"/>
    <mask id="mask-6" x="0" y="0" maskContentUnits="userSpaceOnUse" maskUnits="userSpaceOnUse">
      <rect width="24" height="24" x="0" y="0" fill="black"/>
      <use fill="white" xlink:href="#path-5"/>
    </mask>
  </defs>
  <g>
    <use fill="none" xlink:href="#rect-1"/>
    <g mask="url(#mask-2)">
      <rect width="582" height="402" x="-1" y="-1" fill="none" rx="0" ry="0"/>
      <path fill="rgb(86,255,170)" fill-rule="evenodd" d="M17.43798828 3.56600952l3.99804688 4.01998902c.77600097.77099609.7800293 2.04000854.00793457 2.82199096-.20092774.20101929-.43994141.35302735-.7109375.45700073-1.38500977.66601563-2.25805664 1.42199707-2.75402832 2.41400147-.4840088.96902466-.97802735 2.28500366-.97802735 4.7210083 0 .26098633-.05200195.52600098-.1550293.76800537-.1968994.48599243-.58190917.87298584-1.07995605 1.07800293C15.52001953 19.94799805 15.2640381 20 15.00097656 20c-.26293945 0-.5189209-.05099487-.7659912-.1539917-.25-.10202026-.46997071-.25201416-.65600587-.44100952l-3.2269287-3.22698975L5 20l3.82202148-5.35299683-3.23498535-3.23501587c-.1850586-.17999267-.33105468-.40197753-.4350586-.65097045-.1989746-.4840088-.1989746-1.04101563 0-1.52502442C5.35498048 8.74700928 5.75 8.35400391 6.2340088 8.15200806 6.4790039 8.05200196 6.73400879 8 7 8c2.43395996 0 3.75097656-.49398804 4.71899414-.9790039l.21704102-.10498047c.90002441-.51202393 1.60095214-1.36502076 2.25402832-2.72702027.06799316-.19299316.22192382-.4329834.41796875-.6289978.76696777-.7579956 2.07800293-.75 2.82995605.00601196zM14.993042 17.99099732c.00695801-2.2340088.37597656-3.96099854 1.1949463-5.60400391.6989746-1.39901734 1.89196776-2.46600342 3.75500487-3.3590088l-3.9239502-4.05099486c-.92004394 1.94100952-1.98901366 3.13500976-3.38806151 3.83401489l-.23498536.10498047C10.81396484 9.66497803 9.1390381 10 7 10l7.993042 7.99099731z"/>
      <g>
        <g>
          <use fill="rgb(202,202,202)" xlink:href="#path-5"/>
          <use fill-opacity="0" stroke="rgb(249,27,6)" stroke-linecap="butt" stroke-linejoin="miter" stroke-width="4" mask="url(#mask-6)" xlink:href="#path-5"/>
        </g>
        <path fill="none" stroke="rgb(249,27,6)" stroke-linecap="butt" stroke-linejoin="miter" stroke-width="2" d="M20 13l-7 7"/>
      </g>
    </g>
  </g>
</svg>
